<svg xmlns="http://www.w3.org/2000/svg" viewBox="0 0 102.4 35.9"><defs><style>.cls-1{fill:#fff;}.cls-2{fill:#fcd334;}</style></defs><title>moja-logo-light</title><g id="Layer_2" data-name="Layer 2"><g id="Layer_1-2" data-name="Layer 1"><path class="cls-1" d="M61.5,11.3A6.3,6.3,0,0,0,59.6,10a6,6,0,0,0-6.8,1.4A5.7,5.7,0,0,0,51,10.1a6.2,6.2,0,0,0-2.6-.5,5.9,5.9,0,0,0-3,.8L45,9.8a1.6,1.6,0,0,0-1-.3,1.6,1.6,0,0,0-1.6,1.6V23a1.7,1.7,0,1,0,3.3,0V15.6a2.7,2.7,0,0,1,.2-1.1,2.8,2.8,0,0,1,.6-.9l.9-.6a2.8,2.8,0,0,1,2.1,0l.9.6a2.9,2.9,0,0,1,.6.9,2.6,2.6,0,0,1,.2,1.1V23a1.6,1.6,0,0,0,1.7,1.7,1.6,1.6,0,0,0,1.2-.5,1.6,1.6,0,0,0,.5-1.2V15.6a2.7,2.7,0,0,1,.8-2l.9-.6,1.1-.2,1.1.2.9.6a2.9,2.9,0,0,1,.6.9,2.6,2.6,0,0,1,.2,1.1V23a1.6,1.6,0,0,0,.5,1.2,1.7,1.7,0,0,0,2.3,0,1.6,1.6,0,0,0,.5-1.2V15.6a5.9,5.9,0,0,0-.5-2.4A6.3,6.3,0,0,0,61.5,11.3Z"/><path class="cls-1" d="M80.1,17.1a7.8,7.8,0,0,0-.6-2.9,7.4,7.4,0,0,0-1.7-2.4A7.5,7.5,0,0,0,65,17.1a7.5,7.5,0,0,0,15.1,0ZM68.6,15.4a4.4,4.4,0,0,1,.9-1.4,4.3,4.3,0,0,1,1.3-.9,4.3,4.3,0,0,1,3.3,0,4.3,4.3,0,0,1,2.3,2.3,4.2,4.2,0,0,1,0,3.3,4.4,4.4,0,0,1-.9,1.4,4.3,4.3,0,0,1-1.4.9,4.2,4.2,0,0,1-3.3,0,4.3,4.3,0,0,1-1.3-.9,4.3,4.3,0,0,1-.9-1.4,4.2,4.2,0,0,1,0-3.3Z"/><path class="cls-1" d="M83.8,9.5a1.6,1.6,0,0,0-1.6,1.7v12a3.1,3.1,0,0,1-.3,1.3,3.4,3.4,0,0,1-.7,1l-1,.7-1.3.3a1.6,1.6,0,1,0,0,3.3,6.3,6.3,0,0,0,2.5-.5,6.7,6.7,0,0,0,3.5-3.5,6.3,6.3,0,0,0,.5-2.5v-12a1.6,1.6,0,0,0-1.6-1.7Z"/><path class="cls-1" d="M100.2,11.7a7.5,7.5,0,0,0-12.9,5.3,7.5,7.5,0,0,0,7.5,7.5,7.4,7.4,0,0,0,2.5-.4l1.7-.9a1.7,1.7,0,0,0,3.3-.3V17.1A7.3,7.3,0,0,0,100.2,11.7Zm-5.3,9.6a4.1,4.1,0,0,1-1.7-.3,4.3,4.3,0,0,1-1.3-.9,4.4,4.4,0,0,1-.9-1.4,4.2,4.2,0,0,1,0-3.3,4.4,4.4,0,0,1,.9-1.4,4.3,4.3,0,0,1,1.3-.9,4.2,4.2,0,0,1,3.3,0,4.4,4.4,0,0,1,1.4.9,4.4,4.4,0,0,1,.9,1.4,4.2,4.2,0,0,1,0,3.3,4.4,4.4,0,0,1-.9,1.4,4.3,4.3,0,0,1-1.4.9A4.1,4.1,0,0,1,94.9,21.3Z"/><path class="cls-1" d="M26.1,24.8A10.7,10.7,0,0,1,7.2,17.7a2,2,0,1,1,4,.1,6.6,6.6,0,1,0,13.3,0,2,2,0,1,1,4-.1A10.7,10.7,0,0,1,26.1,24.8Z"/><path class="cls-2" d="M26,13.5l-.2.2a2,2,0,0,1-2.9-.2l-.7-.7a6.7,6.7,0,0,0-9.3.7,2,2,0,1,1-3-2.7A10.7,10.7,0,0,1,24.8,9.8L26,10.9A2,2,0,0,1,26,13.5Z"/><path class="cls-1" d="M31.6,29.5A17.9,17.9,0,0,1,1.5,10.7a2,2,0,1,1,3.7,1.6A13.9,13.9,0,0,0,28.5,26.9a13.8,13.8,0,0,0,2.2-14.5,2,2,0,1,1,3.7-1.6A17.8,17.8,0,0,1,31.6,29.5Z"/><path class="cls-2" d="M30.7,7.9h-.1a2,2,0,0,1-2.9,0l-.8-.7A13.9,13.9,0,0,0,8.2,8,2,2,0,1,1,5.4,5.1a17.9,17.9,0,0,1,24.2-.9l1,.9A2,2,0,0,1,30.7,7.9Z"/><circle class="cls-2" cx="17.9" cy="17.9" r="3.3" transform="translate(-7.3 20) rotate(-49.7)"/></g></g></svg>